<mxfile host="app.diagrams.net" modified="2022-04-25T03:12:55.051Z" agent="5.0 (X11; Linux x86_64) AppleWebKit/537.36 (KHTML, like Gecko) Chrome/100.0.4896.127 Safari/537.36" etag="A6lI-WL9Op_B-jY46oZQ" version="17.4.2" type="github">
  <diagram id="KQnUvlgjMhJI77lf3bEg" name="Page-1">
    <mxGraphModel dx="867" dy="486" grid="1" gridSize="10" guides="1" tooltips="1" connect="1" arrows="1" fold="1" page="1" pageScale="1" pageWidth="850" pageHeight="1100" math="0" shadow="0">
      <root>
        <mxCell id="0" />
        <mxCell id="1" parent="0" />
        <mxCell id="mF1lKzQx6-Lk5efXldR6-4" style="edgeStyle=orthogonalEdgeStyle;rounded=0;orthogonalLoop=1;jettySize=auto;html=1;exitX=1;exitY=0.5;exitDx=0;exitDy=0;entryX=0;entryY=0.5;entryDx=0;entryDy=0;" edge="1" parent="1" target="mF1lKzQx6-Lk5efXldR6-2">
          <mxGeometry relative="1" as="geometry">
            <mxPoint x="180" y="125" as="sourcePoint" />
          </mxGeometry>
        </mxCell>
        <mxCell id="mF1lKzQx6-Lk5efXldR6-7" style="edgeStyle=orthogonalEdgeStyle;rounded=0;orthogonalLoop=1;jettySize=auto;html=1;exitX=0.5;exitY=1;exitDx=0;exitDy=0;" edge="1" parent="1" source="mF1lKzQx6-Lk5efXldR6-2">
          <mxGeometry relative="1" as="geometry">
            <mxPoint x="328" y="230" as="targetPoint" />
          </mxGeometry>
        </mxCell>
        <mxCell id="mF1lKzQx6-Lk5efXldR6-10" style="edgeStyle=orthogonalEdgeStyle;rounded=0;orthogonalLoop=1;jettySize=auto;html=1;exitX=1;exitY=0.5;exitDx=0;exitDy=0;" edge="1" parent="1" source="mF1lKzQx6-Lk5efXldR6-2">
          <mxGeometry relative="1" as="geometry">
            <mxPoint x="450" y="125" as="targetPoint" />
          </mxGeometry>
        </mxCell>
        <mxCell id="mF1lKzQx6-Lk5efXldR6-2" value="LOGGED IN?" style="rhombus;whiteSpace=wrap;html=1;" vertex="1" parent="1">
          <mxGeometry x="270" y="80" width="115" height="90" as="geometry" />
        </mxCell>
        <mxCell id="mF1lKzQx6-Lk5efXldR6-5" value="START" style="ellipse;whiteSpace=wrap;html=1;" vertex="1" parent="1">
          <mxGeometry x="90" y="100" width="90" height="50" as="geometry" />
        </mxCell>
        <mxCell id="mF1lKzQx6-Lk5efXldR6-8" value="Yes" style="text;html=1;strokeColor=none;fillColor=none;align=center;verticalAlign=middle;whiteSpace=wrap;rounded=0;" vertex="1" parent="1">
          <mxGeometry x="320" y="180" width="60" height="30" as="geometry" />
        </mxCell>
        <mxCell id="mF1lKzQx6-Lk5efXldR6-12" value="No" style="text;html=1;strokeColor=none;fillColor=none;align=center;verticalAlign=middle;whiteSpace=wrap;rounded=0;" vertex="1" parent="1">
          <mxGeometry x="390" y="110" width="40" height="10" as="geometry" />
        </mxCell>
        <mxCell id="mF1lKzQx6-Lk5efXldR6-22" style="edgeStyle=orthogonalEdgeStyle;rounded=0;orthogonalLoop=1;jettySize=auto;html=1;exitX=1;exitY=0.25;exitDx=0;exitDy=0;entryX=0;entryY=0.5;entryDx=0;entryDy=0;" edge="1" parent="1" source="mF1lKzQx6-Lk5efXldR6-13" target="mF1lKzQx6-Lk5efXldR6-14">
          <mxGeometry relative="1" as="geometry" />
        </mxCell>
        <mxCell id="mF1lKzQx6-Lk5efXldR6-13" value="Enter username &amp;amp; password" style="shape=parallelogram;perimeter=parallelogramPerimeter;whiteSpace=wrap;html=1;fixedSize=1;" vertex="1" parent="1">
          <mxGeometry x="440" y="110" width="150" height="30" as="geometry" />
        </mxCell>
        <mxCell id="mF1lKzQx6-Lk5efXldR6-16" style="edgeStyle=orthogonalEdgeStyle;rounded=0;orthogonalLoop=1;jettySize=auto;html=1;exitX=0.5;exitY=0;exitDx=0;exitDy=0;entryX=0.553;entryY=0;entryDx=0;entryDy=0;entryPerimeter=0;" edge="1" parent="1" source="mF1lKzQx6-Lk5efXldR6-14" target="mF1lKzQx6-Lk5efXldR6-13">
          <mxGeometry relative="1" as="geometry" />
        </mxCell>
        <mxCell id="mF1lKzQx6-Lk5efXldR6-19" style="edgeStyle=orthogonalEdgeStyle;rounded=0;orthogonalLoop=1;jettySize=auto;html=1;exitX=0.5;exitY=1;exitDx=0;exitDy=0;" edge="1" parent="1" source="mF1lKzQx6-Lk5efXldR6-14">
          <mxGeometry relative="1" as="geometry">
            <mxPoint x="340" y="230" as="targetPoint" />
          </mxGeometry>
        </mxCell>
        <mxCell id="mF1lKzQx6-Lk5efXldR6-14" value="Correct credentials ?" style="rhombus;whiteSpace=wrap;html=1;" vertex="1" parent="1">
          <mxGeometry x="660" y="85" width="100" height="95" as="geometry" />
        </mxCell>
        <mxCell id="mF1lKzQx6-Lk5efXldR6-17" value="No" style="text;html=1;strokeColor=none;fillColor=none;align=center;verticalAlign=middle;whiteSpace=wrap;rounded=0;" vertex="1" parent="1">
          <mxGeometry x="690" y="60" width="60" height="30" as="geometry" />
        </mxCell>
        <mxCell id="mF1lKzQx6-Lk5efXldR6-25" style="edgeStyle=orthogonalEdgeStyle;rounded=0;orthogonalLoop=1;jettySize=auto;html=1;exitX=0.5;exitY=1;exitDx=0;exitDy=0;" edge="1" parent="1" source="mF1lKzQx6-Lk5efXldR6-20" target="mF1lKzQx6-Lk5efXldR6-27">
          <mxGeometry relative="1" as="geometry">
            <mxPoint x="330" y="400" as="targetPoint" />
          </mxGeometry>
        </mxCell>
        <mxCell id="mF1lKzQx6-Lk5efXldR6-20" value="1.Add Books&lt;br&gt;2.Search Books&lt;br&gt;3.View Books&lt;br&gt;4.Delete Books&lt;br&gt;5. Update Password&lt;br&gt;6. Exit" style="rounded=0;whiteSpace=wrap;html=1;align=left;" vertex="1" parent="1">
          <mxGeometry x="260" y="230" width="140" height="110" as="geometry" />
        </mxCell>
        <mxCell id="mF1lKzQx6-Lk5efXldR6-21" value="" style="endArrow=classic;html=1;rounded=0;" edge="1" parent="1">
          <mxGeometry width="50" height="50" relative="1" as="geometry">
            <mxPoint x="400" y="210" as="sourcePoint" />
            <mxPoint x="450" y="160" as="targetPoint" />
          </mxGeometry>
        </mxCell>
        <mxCell id="mF1lKzQx6-Lk5efXldR6-23" value="Yes" style="text;html=1;strokeColor=none;fillColor=none;align=center;verticalAlign=middle;whiteSpace=wrap;rounded=0;" vertex="1" parent="1">
          <mxGeometry x="700" y="180" width="60" height="30" as="geometry" />
        </mxCell>
        <mxCell id="mF1lKzQx6-Lk5efXldR6-33" style="edgeStyle=orthogonalEdgeStyle;rounded=0;orthogonalLoop=1;jettySize=auto;html=1;exitX=0.5;exitY=1;exitDx=0;exitDy=0;entryX=0.5;entryY=0;entryDx=0;entryDy=0;" edge="1" parent="1" source="mF1lKzQx6-Lk5efXldR6-26" target="mF1lKzQx6-Lk5efXldR6-31">
          <mxGeometry relative="1" as="geometry" />
        </mxCell>
        <mxCell id="mF1lKzQx6-Lk5efXldR6-36" style="edgeStyle=orthogonalEdgeStyle;rounded=0;orthogonalLoop=1;jettySize=auto;html=1;exitX=1;exitY=0.5;exitDx=0;exitDy=0;" edge="1" parent="1" source="mF1lKzQx6-Lk5efXldR6-26">
          <mxGeometry relative="1" as="geometry">
            <mxPoint x="480" y="470" as="targetPoint" />
          </mxGeometry>
        </mxCell>
        <mxCell id="mF1lKzQx6-Lk5efXldR6-26" value="Choice = 6 ?" style="rhombus;whiteSpace=wrap;html=1;" vertex="1" parent="1">
          <mxGeometry x="287.5" y="430" width="80" height="80" as="geometry" />
        </mxCell>
        <mxCell id="mF1lKzQx6-Lk5efXldR6-30" style="edgeStyle=orthogonalEdgeStyle;rounded=0;orthogonalLoop=1;jettySize=auto;html=1;exitX=0.5;exitY=1;exitDx=0;exitDy=0;entryX=0.5;entryY=0;entryDx=0;entryDy=0;" edge="1" parent="1" source="mF1lKzQx6-Lk5efXldR6-27" target="mF1lKzQx6-Lk5efXldR6-26">
          <mxGeometry relative="1" as="geometry" />
        </mxCell>
        <mxCell id="mF1lKzQx6-Lk5efXldR6-27" value="Enter choice" style="shape=parallelogram;perimeter=parallelogramPerimeter;whiteSpace=wrap;html=1;fixedSize=1;" vertex="1" parent="1">
          <mxGeometry x="270" y="370" width="120" height="30" as="geometry" />
        </mxCell>
        <mxCell id="mF1lKzQx6-Lk5efXldR6-31" value="EXIT" style="ellipse;whiteSpace=wrap;html=1;" vertex="1" parent="1">
          <mxGeometry x="282.5" y="590" width="90" height="50" as="geometry" />
        </mxCell>
        <mxCell id="mF1lKzQx6-Lk5efXldR6-34" value="Yes" style="text;html=1;strokeColor=none;fillColor=none;align=center;verticalAlign=middle;whiteSpace=wrap;rounded=0;" vertex="1" parent="1">
          <mxGeometry x="260" y="535" width="60" height="30" as="geometry" />
        </mxCell>
        <mxCell id="mF1lKzQx6-Lk5efXldR6-37" value="No" style="text;html=1;strokeColor=none;fillColor=none;align=center;verticalAlign=middle;whiteSpace=wrap;rounded=0;" vertex="1" parent="1">
          <mxGeometry x="372.5" y="440" width="60" height="30" as="geometry" />
        </mxCell>
        <mxCell id="mF1lKzQx6-Lk5efXldR6-40" style="edgeStyle=orthogonalEdgeStyle;rounded=0;orthogonalLoop=1;jettySize=auto;html=1;" edge="1" parent="1">
          <mxGeometry relative="1" as="geometry">
            <mxPoint x="400" y="270" as="targetPoint" />
            <mxPoint x="690" y="440" as="sourcePoint" />
            <Array as="points">
              <mxPoint x="690" y="270" />
            </Array>
          </mxGeometry>
        </mxCell>
        <mxCell id="mF1lKzQx6-Lk5efXldR6-45" style="edgeStyle=orthogonalEdgeStyle;rounded=0;orthogonalLoop=1;jettySize=auto;html=1;exitX=1;exitY=0.5;exitDx=0;exitDy=0;entryX=0;entryY=0.5;entryDx=0;entryDy=0;" edge="1" parent="1" source="mF1lKzQx6-Lk5efXldR6-38" target="mF1lKzQx6-Lk5efXldR6-41">
          <mxGeometry relative="1" as="geometry" />
        </mxCell>
        <mxCell id="mF1lKzQx6-Lk5efXldR6-38" value="Execution Screen" style="rounded=0;whiteSpace=wrap;html=1;" vertex="1" parent="1">
          <mxGeometry x="480" y="440" width="120" height="60" as="geometry" />
        </mxCell>
        <mxCell id="mF1lKzQx6-Lk5efXldR6-47" style="edgeStyle=orthogonalEdgeStyle;rounded=0;orthogonalLoop=1;jettySize=auto;html=1;exitX=0.5;exitY=1;exitDx=0;exitDy=0;entryX=0.425;entryY=1.05;entryDx=0;entryDy=0;entryPerimeter=0;" edge="1" parent="1" source="mF1lKzQx6-Lk5efXldR6-41" target="mF1lKzQx6-Lk5efXldR6-38">
          <mxGeometry relative="1" as="geometry">
            <mxPoint x="530" y="510" as="targetPoint" />
            <Array as="points">
              <mxPoint x="690" y="550" />
              <mxPoint x="530" y="550" />
            </Array>
          </mxGeometry>
        </mxCell>
        <mxCell id="mF1lKzQx6-Lk5efXldR6-41" value="Execution Completed ?" style="rhombus;whiteSpace=wrap;html=1;" vertex="1" parent="1">
          <mxGeometry x="640" y="440" width="100" height="90" as="geometry" />
        </mxCell>
        <mxCell id="mF1lKzQx6-Lk5efXldR6-43" value="Yes" style="text;html=1;strokeColor=none;fillColor=none;align=center;verticalAlign=middle;whiteSpace=wrap;rounded=0;" vertex="1" parent="1">
          <mxGeometry x="690" y="340" width="60" height="30" as="geometry" />
        </mxCell>
        <mxCell id="mF1lKzQx6-Lk5efXldR6-48" value="No" style="text;html=1;strokeColor=none;fillColor=none;align=center;verticalAlign=middle;whiteSpace=wrap;rounded=0;" vertex="1" parent="1">
          <mxGeometry x="560" y="550" width="60" height="30" as="geometry" />
        </mxCell>
      </root>
    </mxGraphModel>
  </diagram>
</mxfile>
